<svg xmlns="http://www.w3.org/2000/svg"
	xmlns:xlink="http://www.w3.org/1999/xlink" width="2048" height="2048" viewBox="0 0 2048 2048">
	<defs>
		<clipPath id="b">
			<rect width="2048" height="2048"/>
		</clipPath>
	</defs>
	<g id="a" clip-path="url(#b)">
		<g transform="translate(153 456)" fill="#9cbce2" stroke="#707070" stroke-width="1">
			<rect width="1439" height="1438" stroke="none"/>
			<rect x="0.5" y="0.5" width="1438" height="1437" fill="none"/>
		</g>
		<g transform="translate(0 304.363)">
			<path d="M55.11-46H1467.218A101.224,101.224,0,0,1,1568.327,55.11V1467.218a101.224,101.224,0,0,1-101.109,101.109H55.11A101.224,101.224,0,0,1-46,1467.218V55.11A101.224,101.224,0,0,1,55.11-46ZM1467.218,1489.5a22.3,22.3,0,0,0,22.278-22.278V55.11a22.3,22.3,0,0,0-22.278-22.278H55.11A22.3,22.3,0,0,0,32.831,55.11V1467.218A22.3,22.3,0,0,0,55.11,1489.5Z" transform="translate(110.655 110.655)" fill="#9cbce2"/>
			<path d="M73.765-92H1485.872c91.4,0,165.764,74.362,165.764,165.765V1485.872c0,91.4-74.362,165.764-165.764,165.764H73.765c-91.4,0-165.765-74.362-165.765-165.764V73.765C-92-17.638-17.638-92,73.765-92ZM1443.5,116.141H116.141V1443.5H1443.5Z" transform="translate(92 92)" fill="#9cbce2"/>
		</g>
		<g transform="translate(304.363)">
			<path d="M55.11-46H1467.218A101.224,101.224,0,0,1,1568.327,55.11V1467.218a101.224,101.224,0,0,1-101.109,101.109H55.11A101.224,101.224,0,0,1-46,1467.218V55.11A101.224,101.224,0,0,1,55.11-46ZM1467.218,1489.5a22.3,22.3,0,0,0,22.278-22.278V55.11a22.3,22.3,0,0,0-22.278-22.278H55.11A22.3,22.3,0,0,0,32.831,55.11V1467.218A22.3,22.3,0,0,0,55.11,1489.5Z" transform="translate(110.655 110.655)" fill="#386090"/>
			<path d="M73.765-92H1485.872c91.4,0,165.764,74.362,165.764,165.765V1485.872c0,91.4-74.362,165.764-165.764,165.764H73.765c-91.4,0-165.765-74.362-165.765-165.764V73.765C-92-17.638-17.638-92,73.765-92ZM1443.5,116.141H116.141V1443.5H1443.5Z" transform="translate(92 92)" fill="#386090"/>
		</g>
		<path d="M4833.564,1278.78s133.95-131.731,393.713-145.052,275.3,115.45,479.56,115.45,231.639-262.722,399.634-301.946,272.344,145.052,272.344,145.052v612.772l-1545.25,17.761Z" transform="translate(-4420.182 -79.737)" fill="#386090"/>
	</g>
</svg>