<svg xmlns="http://www.w3.org/2000/svg" xmlns:xlink="http://www.w3.org/1999/xlink" width="2048" height="2048" viewBox="0 0 2048 2048"><defs><clipPath id="b"><rect width="2048" height="2048"/></clipPath></defs><g id="a" clip-path="url(#b)"><g transform="translate(-2135.413 2557.33)"><g transform="translate(2434.113 -2534)"><g transform="translate(60.824)"><path d="M3155.54-2534s-84.959,64.159-263.818,239.217-282.542,88.7-376.725,238.738,119.1,438.458,227.788,460.678c162.765,33.282,412.75-103.66,412.75-103.66V-2534Z" transform="translate(-2491.589 2534)" fill="#cc637f"/><path d="M3119.991-2534s84.959,64.159,263.818,239.217,282.549,88.7,376.731,238.738-119.1,438.458-227.79,460.678c-162.765,33.282-412.75-103.66-412.75-103.66V-2534Z" transform="translate(-2454.995 2534)" fill="#cc637f"/><path d="M3372.466-2289.322s271.565,262.395,333.391,397.208-123.233,171.646-123.233,171.646Z" transform="translate(-2440.292 2548.248)" fill="#af4864"/><path d="M2885.577-2289.322s-271.563,262.395-333.391,397.208,123.234,171.646,123.234,171.646Z" transform="translate(-2488.796 2548.248)" fill="#af4864"/><path d="M3155.54-2534s-84.959,64.159-263.818,239.217-282.542,88.7-376.725,238.738,119.1,438.458,227.788,460.678c162.765,33.282,412.75-103.66,412.75-103.66V-2534Z" transform="translate(-2491.589 2534)" fill="none" stroke="#572b50" stroke-linecap="round" stroke-linejoin="round" stroke-width="32"/><path d="M3119.991-2534s84.959,64.159,263.818,239.217,282.549,88.7,376.731,238.738-119.1,438.458-227.79,460.678c-162.765,33.282-412.75-103.66-412.75-103.66V-2534Z" transform="translate(-2454.995 2534)" fill="none" stroke="#572b50" stroke-linecap="round" stroke-linejoin="round" stroke-width="32"/></g><path d="M3140.719-911.055l-2.434-1.058a620.556,620.556,0,0,1-131.414-13.458c-36.433-7.739-69.138-18.337-97.223-31.5-34.989-16.4-63.116-36.949-83.565-61.1-22.659-26.716-40.33-58.4-52.539-94.166a350.652,350.652,0,0,1-18.413-105.327c-.821-35,3.542-70.218,12.623-101.8a270.45,270.45,0,0,1,17.257-45.1,213.357,213.357,0,0,1,24.339-38.788c17.3-21.694,41.739-45.281,68.817-66.4,31.055-24.191,63.706-43.705,94.445-56.366,43.043-17.759,86.258-27.051,114.924-31.718,18-2.92,32.537-4.455,41.017-5.215v-1.2l12.166.441,11.115-.441v1.2c9.545.76,24.086,2.3,42.075,5.215,28.678,4.668,71.876,13.958,114.935,31.718,30.733,12.666,63.388,32.17,94.442,56.366,27.078,21.12,51.516,44.7,68.8,66.4a212.953,212.953,0,0,1,24.356,38.787,272.462,272.462,0,0,1,17.25,45.1c9.077,31.581,13.439,66.8,12.635,101.8a351.113,351.113,0,0,1-18.413,105.327c-12.212,35.761-29.9,67.449-52.541,94.164-20.453,24.146-48.582,44.688-83.57,61.1-28.1,13.168-60.806,23.766-97.223,31.5a699.562,699.562,0,0,1-131.433,14.516Z" transform="translate(-2415.424 2590.472)" fill="#cc637f" stroke="#572b50" stroke-linecap="round" stroke-linejoin="round" stroke-width="32"/><g transform="translate(123.755)"><path d="M3283.84-1334.524c-61.667-18.989-115.559-38.208-131.539-43.985-15.979,5.777-69.871,25-131.539,43.985-99.368,30.6-170.813,46.117-212.342,46.117-16.858,0-29.159-2.52-37.584-7.69q-4.721-2.889-9.427-5.777c-70.388-43.112-136.866-83.852-174.345-152.6-20.026-36.7-30.093-78.277-30.758-127.094-.37-26.025,2.033-54.619,7.129-84.976,5.291-31.535,13.686-66.16,24.953-102.89,21.575-70.373,64.256-154.239,126.857-249.257,49.918-75.775,112.576-158.841,186.249-246.9,65.484-78.285,127.752-146.116,168.452-189.236,44.128-46.747,73.171-75.387,73.457-75.679.016,0,.016-.011.032-.011a5.366,5.366,0,0,1,.4-.376,11.88,11.88,0,0,1,4.65-2.464,23.784,23.784,0,0,1,3.486-.651h.652a5.528,5.528,0,0,1,2.934,1.058h.049c.009-.541.044-.541.072-.528a11.812,11.812,0,0,1,5.5,2.963c.29.291,29.345,28.932,73.474,75.678,40.688,43.125,102.966,110.956,168.459,189.238,73.667,88.054,136.333,171.116,186.25,246.9,62.6,95.019,105.277,178.884,126.854,249.257,11.254,36.731,19.648,71.355,24.936,102.89,5.112,30.361,7.514,58.953,7.132,84.976-.672,48.817-10.719,90.392-30.749,127.094-37.475,68.739-103.973,109.479-174.355,152.591q-4.7,2.889-9.428,5.777c-8.425,5.171-20.707,7.69-37.567,7.69C3454.646-1288.407,3383.208-1303.92,3283.84-1334.524Z" transform="translate(-2550.754 2534)" fill="#cc637f" stroke="#572b50" stroke-linecap="round" stroke-linejoin="round" stroke-width="32"/><path d="M3468.705-2126.521s205.55,309.89,230.188,480.968S3489.2-1328.295,3489.2-1328.295s80.226-86.415,118.311-231.993-11.852-257.3-22.853-301.313S3468.705-2126.521,3468.705-2126.521Z" transform="translate(-2497.618 2557.729)" fill="#af4864"/><path d="M2783.061-2126.521s-205.55,309.89-230.188,480.968,209.693,317.259,209.693,317.259-80.226-86.415-118.31-231.993,11.852-257.3,22.852-301.313S2783.061-2126.521,2783.061-2126.521Z" transform="translate(-2551.057 2557.729)" fill="#af4864"/><path d="M3283.84-1334.524c-61.667-18.989-115.559-38.208-131.539-43.985-15.979,5.777-69.871,25-131.539,43.985-99.368,30.6-170.813,46.117-212.342,46.117-16.858,0-29.159-2.52-37.584-7.69q-4.721-2.889-9.427-5.777c-70.388-43.112-136.866-83.852-174.345-152.6-20.026-36.7-30.093-78.277-30.758-127.094-.37-26.025,2.033-54.619,7.129-84.976,5.291-31.535,13.686-66.16,24.953-102.89,21.575-70.373,64.256-154.239,126.857-249.257,49.918-75.775,112.576-158.841,186.249-246.9,65.484-78.285,127.752-146.116,168.452-189.236,44.128-46.747,73.171-75.387,73.457-75.679.016,0,.016-.011.032-.011a5.366,5.366,0,0,1,.4-.376,11.88,11.88,0,0,1,4.65-2.464,23.784,23.784,0,0,1,3.486-.651h.652a5.528,5.528,0,0,1,2.934,1.058h.049c.009-.541.044-.541.072-.528a11.812,11.812,0,0,1,5.5,2.963c.29.291,29.345,28.932,73.474,75.678,40.688,43.125,102.966,110.956,168.459,189.238,73.667,88.054,136.333,171.116,186.25,246.9,62.6,95.019,105.277,178.884,126.854,249.257,11.254,36.731,19.648,71.355,24.936,102.89,5.112,30.361,7.514,58.953,7.132,84.976-.672,48.817-10.719,90.392-30.749,127.094-37.475,68.739-103.973,109.479-174.355,152.591q-4.7,2.889-9.428,5.777c-8.425,5.171-20.707,7.69-37.567,7.69C3454.646-1288.407,3383.208-1303.92,3283.84-1334.524Z" transform="translate(-2550.754 2534)" fill="none" stroke="#572b50" stroke-linecap="round" stroke-linejoin="round" stroke-width="32"/></g><g transform="translate(0 1471.274)"><g transform="translate(724.822)"><path d="M3385.532-1111.781s77.949-48.4,150.676-25.984,60.4,147.116,106.818,155.642,65.366-5.683,57.789-41.681-69.437,5.919-53.336-36.71,80.752-84.262,132.808-48.292,68.477,142.544,37.356,203.181-102.737,148.634-237.72,127.713S3315.8-1010.17,3315.8-1010.17" transform="translate(-3107.59 1143.69)" fill="#af4864" stroke="#572b50" stroke-linecap="round" stroke-linejoin="round" stroke-width="32"/><g transform="translate(72.467 49.066)"><path d="M3303.688-1064.049s10.366-25.028,32.212-30.312c38.61-9.349,110.779,3.125,167.665,41.681,85.542,57.982,17.569,161.218,47.027,194.15,17.557,19.629,45.7,44.414,66.4,10.784s-36.217-1.292-33.626-28.889,59.066-70.72,93.988-19.84-7.372,128.373-40.526,153.07-129.879,76.421-282.424-7.335-166.874-237.513-166.874-237.513" transform="translate(-3187.527 1097.324)" fill="#cc637f" stroke="#572b50" stroke-linecap="round" stroke-linejoin="round" stroke-width="32"/><path d="M3374.762-983.395s5.714,108.76,64.324,166.738,182.82,63.478,182.82,63.478-56.707,77.867-238.68,52.476S3374.762-983.395,3374.762-983.395Z" transform="translate(-3180.972 1103.959)" fill="#af4864"/><path d="M3303.687-1064.049s10.366-25.028,32.211-30.312c38.611-9.349,110.78,3.125,167.665,41.681,85.542,57.982,17.569,161.218,47.025,194.15,17.559,19.629,45.705,44.414,66.4,10.784s-36.217-1.292-33.626-28.889,59.067-70.72,93.988-19.84-7.372,128.373-40.526,153.07-129.879,76.421-282.424-7.335-166.874-237.513-166.874-237.513" transform="translate(-3187.527 1097.324)" fill="none" stroke="#572b50" stroke-linecap="round" stroke-linejoin="round" stroke-width="32"/></g><g transform="translate(0 99.466)"><path d="M3250.9-1027.1s41.353-34.838,71.052-18c25.145,14.243,92.84,83.357,102.311,137.356s-34.968,109.073-19.9,148.733c8.986,23.64,61.573,72.942,100.416,4.736s-71.049,2.844-32.209-54.944,104.2-3.787,106.1,41.683S3569.9-655.947,3481.1-629.23s-171.1,1.5-265.241-96.623-96.809-266.223-96.809-266.223" transform="translate(-3119.048 1049.697)" fill="#cc637f"/><path d="M3127.091-1002.113s44.011,125.433,75.92,177.148,44.2,67.891,94.626,115.532S3404.7-634.4,3404.7-634.4s-70.141-2.685-119.928-35.418-61.858-45.206-89.454-86.923C3136.72-845.32,3127.091-1002.113,3127.091-1002.113Z" transform="translate(-3118.58 1052.468)" fill="#af4864"/><path d="M3250.9-1027.1s41.353-34.838,71.052-18c25.145,14.243,92.84,83.357,102.311,137.356s-34.969,109.073-19.9,148.733c8.987,23.64,61.573,72.942,100.416,4.736s-71.049,2.844-32.21-54.944,104.2-3.787,106.1,41.683S3569.9-655.947,3481.1-629.23s-171.1,1.5-265.241-96.623-96.809-266.223-96.809-266.223" transform="translate(-3119.048 1049.697)" fill="none" stroke="#572b50" stroke-linecap="round" stroke-linejoin="round" stroke-width="32"/></g></g><g transform="translate(0.001 0.002)"><path d="M2881.953-1111.779s-77.953-48.4-150.681-25.984-60.4,147.116-106.818,155.642-65.367-5.683-57.78-41.681,69.436,5.919,53.327-36.71-80.751-84.262-132.809-48.292-68.477,142.544-37.349,203.181,102.733,148.634,237.721,127.713,264.118-232.258,264.118-232.258" transform="translate(-2434.113 1143.688)" fill="#af4864" stroke="#572b50" stroke-linecap="round" stroke-linejoin="round" stroke-width="32"/><path d="M2962.985-1064.041s-10.367-25.032-32.214-30.32c-38.611-9.349-110.781,3.123-167.667,41.681-85.539,57.981-17.571,161.218-47.026,194.15-17.556,19.628-45.7,44.412-66.4,10.783s36.216-1.292,33.628-28.889-59.065-70.713-93.989-19.835,7.368,128.374,40.524,153.07,129.877,76.424,282.423-7.328,166.876-237.52,166.876-237.52" transform="translate(-2425.838 1146.388)" fill="#cc637f" stroke="#572b50" stroke-linecap="round" stroke-linejoin="round" stroke-width="32"/><path d="M3013.314-1027.071s-41.371-34.834-71.072-17.981c-25.147,14.253-92.833,83.4-102.294,137.417s35.008,109.078,19.94,148.749c-8.981,23.646-61.565,72.973-100.434,4.763s71.067,2.822,32.2-54.965-104.227-3.76-106.111,41.721,8.811,111.607,97.637,138.3,171.134,1.46,265.268-96.71,96.755-266.3,96.755-266.3" transform="translate(-2419.482 1149.164)" fill="#cc637f" stroke="#572b50" stroke-linecap="round" stroke-linejoin="round" stroke-width="32.006"/></g><path d="M2881.949-1111.781s-77.95-48.4-150.676-25.984-60.4,147.116-106.818,155.642-65.366-5.683-57.789-41.681,69.437,5.919,53.336-36.71-80.752-84.262-132.809-48.292-68.477,142.544-37.355,203.181,102.736,148.634,237.72,127.713,264.119-232.258,264.119-232.258" transform="translate(-2434.113 1143.69)" fill="#af4864" stroke="#572b50" stroke-linecap="round" stroke-linejoin="round" stroke-width="32"/><g transform="translate(150.383 49.062)"><path d="M2962.987-1064.044s-10.366-25.031-32.214-30.319c-38.611-9.351-110.779,3.122-167.664,41.68-85.542,57.982-17.57,161.218-47.026,194.151-17.558,19.628-45.7,44.413-66.4,10.783s36.217-1.291,33.626-28.888-59.065-70.715-93.987-19.837,7.372,128.373,40.526,153.07,129.876,76.422,282.423-7.33,166.875-237.518,166.875-237.518" transform="translate(-2576.22 1097.328)" fill="#cc637f" stroke="#572b50" stroke-linecap="round" stroke-linejoin="round" stroke-width="32"/><path d="M2881.946-983.395s-5.714,108.76-64.324,166.738S2634.8-753.179,2634.8-753.179s56.708,77.867,238.681,52.476S2881.946-983.395,2881.946-983.395Z" transform="translate(-2572.809 1103.963)" fill="#af4864"/><path d="M2962.988-1064.044s-10.366-25.031-32.214-30.319c-38.61-9.351-110.779,3.122-167.664,41.68-85.542,57.982-17.57,161.218-47.026,194.151-17.558,19.628-45.7,44.413-66.4,10.783s36.217-1.291,33.626-28.888-59.065-70.715-93.987-19.837S2596.7-768.1,2629.849-743.4s129.876,76.422,282.423-7.33,166.875-237.518,166.875-237.518" transform="translate(-2576.22 1097.328)" fill="none" stroke="#572b50" stroke-linecap="round" stroke-linejoin="round" stroke-width="32"/></g><g transform="translate(265.875 99.507)"><path d="M3013.316-1027.074s-41.371-34.833-71.073-17.98c-25.146,14.253-92.833,83.4-102.294,137.416s35.006,109.081,19.941,148.75c-8.982,23.646-61.565,72.973-100.434,4.764s71.063,2.824,32.2-54.964-104.225-3.76-106.111,41.72,8.81,111.608,97.633,138.307,171.138,1.456,265.271-96.712,96.755-266.3,96.755-266.3" transform="translate(-2685.357 1049.659)" fill="#cc637f"/><path d="M3127.181-1002.113s-44.011,125.435-75.92,177.148-44.2,67.891-94.626,115.532-107.061,75.028-107.061,75.028,70.144-2.684,119.933-35.418,61.858-45.206,89.453-86.923C3117.554-845.32,3127.181-1002.113,3127.181-1002.113Z" transform="translate(-2675.794 1052.427)" fill="#af4864"/><path d="M3013.317-1027.074s-41.371-34.833-71.072-17.98c-25.146,14.253-92.834,83.4-102.294,137.416s35.006,109.081,19.942,148.75c-8.982,23.646-61.565,72.973-100.434,4.764s71.063,2.824,32.2-54.964-104.226-3.76-106.111,41.72,8.81,111.608,97.633,138.307,171.137,1.456,265.27-96.712,96.756-266.3,96.756-266.3" transform="translate(-2685.357 1049.659)" fill="none" stroke="#572b50" stroke-linecap="round" stroke-linejoin="round" stroke-width="32.006"/></g></g></g><path d="M3267.7-1176.236c42.636-12.02,83.214-5.724,90.625,14.064s-21.145,45.575-63.789,57.6-83.213,5.724-90.625-14.065S3225.054-1164.215,3267.7-1176.236Z" transform="translate(44.761 78.713)" fill="#ff65a8" opacity="0.92" style="isolation:isolate"/><path d="M2979.928-1176.232c-42.637-12.019-83.214-5.723-90.624,14.066s21.148,45.575,63.789,57.6,83.212,5.724,90.625-14.065S3022.569-1164.211,2979.928-1176.232Z" transform="translate(26.44 78.713)" fill="#ff65a8" opacity="0.92" style="isolation:isolate"/><g transform="translate(3176.834 -1363.182)"><path d="M3266.04-1136.708c-54.942,0-114.078-29.378-114.078-93.878,0-67.607,8.073-181.026,62.137-181.026,59.136,0,155.632,87.267,155.632,156.209C3369.731-1184.4,3316.116-1136.708,3266.04-1136.708Z" transform="translate(-3135.031 1428.543)" fill="#f2f2f2"/><path d="M3215.031-1393.748c-20.854,0-45.206,42.976-45.206,164.094,0,60.74,61.064,76.946,97.146,76.946,41.036,0,86.76-41.792,86.76-101.763,0-58.761-88.48-139.277-138.7-139.277m0-33.864c69.856,0,172.563,96.1,172.563,173.141s-58.958,135.626-120.623,135.626-131.009-33.768-131.009-110.81S3145.175-1427.612,3215.031-1427.612Z" transform="translate(-3135.962 1427.612)" fill="#572b50"/><path d="M3238.548-1194.5c-34.433,8.885-63.494-23.413-67.346-64.491s13.9-90,51.941-99.814,72.436,40.341,76.285,81.418S3272.98-1203.383,3238.548-1194.5Z" transform="translate(-3133.94 1431.547)" fill="#572b50"/><path d="M3222.806-1286.221c-13.3,3.529-27.88-4.405-32.571-17.719s2.286-26.965,15.585-30.492,27.88,4.406,32.571,17.718S3236.1-1289.749,3222.806-1286.221Z" transform="translate(-3132.887 1432.989)" fill="#fff"/><path d="M3258.459-1220.974c-14.84,6.1-31.459,2.092-37.115-8.943s1.784-24.944,16.624-31.046,31.457-2.1,37.116,8.946S3273.3-1227.076,3258.459-1220.974Z" transform="translate(-3131.1 1437.151)" fill="#9b4a8e"/></g><g transform="translate(2890.362 -1363.182)"><path d="M2984.947-1136.708c-50.077,0-103.692-47.695-103.692-118.695,0-68.942,96.495-156.209,155.632-156.209,54.066,0,62.139,113.418,62.139,181.026C3099.025-1166.086,3039.89-1136.708,2984.947-1136.708Z" transform="translate(-2864.323 1428.543)" fill="#f2f2f2"/><path d="M3037.819-1393.748c-50.219,0-138.7,80.517-138.7,139.277,0,59.971,45.724,101.763,86.76,101.763,36.081,0,97.147-16.206,97.147-76.946,0-121.118-24.353-164.094-45.207-164.094m0-33.864c69.856,0,79.071,120.916,79.071,197.958s-69.347,110.81-131.011,110.81-120.624-58.585-120.624-135.626S2967.963-1427.612,3037.819-1427.612Z" transform="translate(-2865.255 1427.612)" fill="#572b50"/><path d="M3007.558-1194.5c34.434,8.885,63.495-23.412,67.346-64.491s-13.9-90-51.941-99.813-72.437,40.341-76.285,81.415S2973.124-1203.382,3007.558-1194.5Z" transform="translate(-2860.531 1431.547)" fill="#572b50"/><path d="M3019.007-1286.221c13.3,3.528,27.88-4.405,32.571-17.719s-2.286-26.965-15.584-30.492-27.881,4.4-32.572,17.718S3005.708-1289.749,3019.007-1286.221Z" transform="translate(-2857.293 1432.989)" fill="#fff"/><path d="M2983.71-1220.947c14.847,6.106,31.475,2.1,37.134-8.951s-1.781-24.951-16.629-31.058-31.475-2.1-37.135,8.945S2968.863-1227.052,2983.71-1220.947Z" transform="translate(-2859.435 1437.151)" fill="#9b4a8e"/></g><path d="M2737.83-1821.275c31.656,9.86,70.234-14.258,86.17-53.869s3.186-79.717-28.469-89.578-70.239,14.256-86.168,53.87S2706.174-1831.136,2737.83-1821.275Z" transform="translate(15.63 33.023)" fill="#f692ac" opacity="0.92" style="isolation:isolate"/><path d="M2810.179-1961.936c24.742,9.115,52.075-5.213,62.982-29.192s11.948-52.935,32.143-111.028,62.007-184.626,62.434-197.684-68.462,81.118-114.588,147.793-67.71,94.4-74.22,124.354S2785.439-1971.05,2810.179-1961.936Z" transform="translate(19.983 13.565)" fill="#f692ac" opacity="0.92" style="isolation:isolate"/><g transform="translate(2898.742 -810.551)"><path d="M2902.44-852.525a46.548,46.548,0,0,1-8.568,2.081,16.423,16.423,0,0,1-7.222-.5,12.573,12.573,0,0,1-5.906-4.208,28.5,28.5,0,0,1-4.667-9.292,46.97,46.97,0,0,1-1.366-24.525c1.853-7.863,5.955-13.194,11.551-15.012,5.722-1.859,10.448-.885,14.447,2.977a28.155,28.155,0,0,1,5.264,7.457,72.543,72.543,0,0,1,4.369,10.848,63.236,63.236,0,0,1,2.695,11.146,24.349,24.349,0,0,1-.187,8.7,12.7,12.7,0,0,1-3.377,6.277A17.033,17.033,0,0,1,2902.44-852.525Z" transform="translate(-2873.144 905.421)" fill="#f28ea8"/><path d="M2886.455-903.444c-5.414,1.759-9.39,6.955-11.2,14.63a46.42,46.42,0,0,0,1.354,24.239,28,28,0,0,0,4.573,9.123,12.062,12.062,0,0,0,5.661,4.038,15.92,15.92,0,0,0,6.992.474,45.95,45.95,0,0,0,8.47-2.06,16.519,16.519,0,0,0,6.821-3.918,12.186,12.186,0,0,0,3.237-6.024,23.823,23.823,0,0,0,.177-8.507,62.742,62.742,0,0,0-2.671-11.052c-2.842-8.745-5.948-14.662-9.5-18.088a12.69,12.69,0,0,0-6.16-3.468,14.585,14.585,0,0,0-7.756.614m-.327-1.006c12.326-4.005,19.366,5.063,24.747,21.622s4.084,26.831-8.243,30.835-21.649,4.3-27.029-12.254S2873.8-900.445,2886.128-904.45Z" transform="translate(-2873.174 905.392)" fill="#f28ea8"/></g><g transform="translate(2754.7 -904.214)"><path d="M2751.722-946.689c-3.518.432-6.5-.99-8.859-4.224a22.5,22.5,0,0,1-3.038-6.234,47.125,47.125,0,0,1-1.882-8.879c-.913-7.438-.2-13.88,2.056-18.629a15.429,15.429,0,0,1,4.6-5.81,14.454,14.454,0,0,1,7.048-2.745,15.479,15.479,0,0,1,6.76.369,7.815,7.815,0,0,1,4.084,3.146c2.141,3.139,3.13,8.328,4.033,15.685.843,6.858-.094,13.1-2.709,18.056a17.321,17.321,0,0,1-10.192,8.865A11.922,11.922,0,0,1,2751.722-946.689Z" transform="translate(-2737.029 993.93)" fill="#f28ea8"/><path d="M2751.74-992.656a13.938,13.938,0,0,0-6.794,2.642,14.923,14.923,0,0,0-4.439,5.615c-2.215,4.658-2.909,11-2.008,18.337a46.6,46.6,0,0,0,1.858,8.778,21.946,21.946,0,0,0,2.963,6.087c2.239,3.069,5.054,4.418,8.366,4.012a11.311,11.311,0,0,0,1.813-.383,16.786,16.786,0,0,0,9.874-8.6c2.565-4.857,3.481-10.993,2.653-17.743-.893-7.278-1.865-12.4-3.945-15.452-2.01-2.948-5.1-3.931-10.342-3.288m-.129-1.051c11.454-1.406,13.646,4.833,15.467,19.662s-4.775,24.985-13.278,27.492-14.531-4.55-16.352-19.379S2740.156-992.3,2751.611-993.707Z" transform="translate(-2737.058 993.901)" fill="#f28ea8"/></g><g transform="translate(2910.892 -907.006)"><path d="M2898.877-916.244a42.591,42.591,0,0,1-8.638-6.732,17.89,17.89,0,0,1-4.641-8.33,22.414,22.414,0,0,1,.709-11.4,65.29,65.29,0,0,1,7.664-15.972c7.7-12.319,17.945-23.325,28.112-30.194a42.274,42.274,0,0,1,14.421-6.672c4.633-.991,8.589-.489,11.755,1.491a16.787,16.787,0,0,1,4.1,3.525,14.093,14.093,0,0,1,2.44,4.341,21.786,21.786,0,0,1,.387,11.21,61.63,61.63,0,0,1-5.04,14.451,168.3,168.3,0,0,1-9.676,17.372,146.36,146.36,0,0,1-11.254,15.931,52.511,52.511,0,0,1-10.511,10.033,19.58,19.58,0,0,1-9.975,3.751A16.526,16.526,0,0,1,2898.877-916.244Z" transform="translate(-2884.625 996.568)" fill="#f28ea8"/><path d="M2948.008-993.578c-3.045-1.9-6.87-2.383-11.365-1.422a41.774,41.774,0,0,0-14.235,6.593c-10.107,6.83-20.3,17.777-27.96,30.036a64.837,64.837,0,0,0-7.6,15.84,21.923,21.923,0,0,0-.7,11.136,17.38,17.38,0,0,0,4.512,8.087,42.125,42.125,0,0,0,8.531,6.646,16.016,16.016,0,0,0,9.544,2.722,19.053,19.053,0,0,0,9.705-3.66,51.9,51.9,0,0,0,10.4-9.933,145.863,145.863,0,0,0,11.213-15.874,167.361,167.361,0,0,0,9.646-17.317,61.081,61.081,0,0,0,5-14.325,21.254,21.254,0,0,0-.366-10.936,14.388,14.388,0,0,0-6.321-7.592m.561-.9c13.63,8.518,8.021,26.6-7.621,51.628s-28.693,35.6-42.322,27.081-20.717-18.138-5.074-43.167S2934.94-1002.994,2948.569-994.475Z" transform="translate(-2884.654 996.539)" fill="#f28ea8"/></g><g transform="translate(2774.1 -964.499)"><path d="M2758.052-1007.608a8.239,8.239,0,0,1-2.143-5.1,14.329,14.329,0,0,1,1.419-6.611,36.384,36.384,0,0,1,5.063-7.949,80.187,80.187,0,0,1,8.685-8.995c7.687-6.922,15.271-11.516,21.935-13.286a19.688,19.688,0,0,1,9.28-.453,13.63,13.63,0,0,1,7.32,4.3,14.226,14.226,0,0,1,3.712,6.561,10.044,10.044,0,0,1-1,6.428c-2.179,4.582-7.323,9.741-14.919,16.58-7.094,6.386-14.6,10.611-21.71,12.215-6.408,1.445-12.109.643-16.053-2.26A10.555,10.555,0,0,1,2758.052-1007.608Z" transform="translate(-2755.361 1050.898)" fill="#f28ea8"/><path d="M2809.248-1045.318a13.109,13.109,0,0,0-7.04-4.14,19.176,19.176,0,0,0-9.031.447c-6.582,1.749-14.092,6.3-21.717,13.168a79.815,79.815,0,0,0-8.626,8.935,35.925,35.925,0,0,0-4.992,7.831c-2.052,4.65-1.839,8.4.634,11.145a10.025,10.025,0,0,0,1.514,1.36c3.818,2.811,9.366,3.581,15.623,2.169,7.02-1.584,14.446-5.766,21.472-12.092,7.547-6.795,12.655-11.911,14.794-16.414a9.532,9.532,0,0,0,.955-6.1,13.734,13.734,0,0,0-3.585-6.311m.786-.708c8.546,9.491,3,16.59-12.242,30.316s-30.473,15.846-38.431,9.989-3.854-17.182,11.39-30.909S2801.488-1055.517,2810.035-1046.026Z" transform="translate(-2755.391 1050.868)" fill="#f28ea8"/></g><g transform="translate(3379.371 -810.548)"><path d="M3354.92-903.974c5.6,1.818,9.7,7.149,11.551,15.012a46.951,46.951,0,0,1-1.366,24.523,28.471,28.471,0,0,1-4.667,9.293,12.565,12.565,0,0,1-5.9,4.208,16.427,16.427,0,0,1-7.222.5,46.537,46.537,0,0,1-8.568-2.082,17.042,17.042,0,0,1-7.033-4.049,12.716,12.716,0,0,1-3.377-6.277,24.341,24.341,0,0,1-.186-8.7,63.262,63.262,0,0,1,2.693-11.146,72.606,72.606,0,0,1,4.37-10.848,28.174,28.174,0,0,1,5.263-7.457C3344.472-904.859,3349.2-905.833,3354.92-903.974Z" transform="translate(-3327.325 905.418)" fill="#f28ea8"/><path d="M3354.785-903.441a14.572,14.572,0,0,0-7.755-.614,12.693,12.693,0,0,0-6.161,3.468c-3.548,3.427-6.656,9.343-9.5,18.088a62.737,62.737,0,0,0-2.673,11.052,23.824,23.824,0,0,0,.177,8.507,12.192,12.192,0,0,0,3.237,6.024,16.525,16.525,0,0,0,6.821,3.918,46.034,46.034,0,0,0,8.469,2.06,15.92,15.92,0,0,0,6.993-.474,12.068,12.068,0,0,0,5.661-4.038,28.019,28.019,0,0,0,4.574-9.123,46.424,46.424,0,0,0,1.354-24.24c-1.81-7.675-5.786-12.87-11.2-14.629m.327-1.006c12.327,4,15.905,23.643,10.525,40.2s-14.7,16.26-27.03,12.254-13.623-14.276-8.243-30.835S3342.785-908.452,3355.112-904.447Z" transform="translate(-3327.353 905.388)" fill="#f28ea8"/></g><g transform="translate(3533.802 -904.214)"><path d="M3488.963-993.211a14.472,14.472,0,0,1,7.048,2.745,15.432,15.432,0,0,1,4.6,5.811c2.258,4.748,2.969,11.191,2.056,18.628a47.174,47.174,0,0,1-1.882,8.88,22.449,22.449,0,0,1-3.038,6.233c-2.361,3.235-5.341,4.657-8.857,4.226a11.919,11.919,0,0,1-1.9-.4,17.308,17.308,0,0,1-10.191-8.865c-2.615-4.954-3.553-11.2-2.71-18.055.9-7.357,1.893-12.547,4.033-15.686a7.815,7.815,0,0,1,4.084-3.145A15.476,15.476,0,0,1,3488.963-993.211Z" transform="translate(-3473.257 993.93)" fill="#f28ea8"/><path d="M3488.928-992.657c-5.24-.643-8.333.341-10.343,3.289-2.079,3.05-3.052,8.174-3.945,15.452-.828,6.749.089,12.885,2.653,17.743a16.784,16.784,0,0,0,9.874,8.6,11.315,11.315,0,0,0,1.815.383c3.311.407,6.126-.943,8.365-4.011a21.956,21.956,0,0,0,2.963-6.087,46.666,46.666,0,0,0,1.86-8.779c.9-7.338.206-13.679-2.009-18.337a14.921,14.921,0,0,0-4.439-5.615,13.948,13.948,0,0,0-6.794-2.642m.129-1.05c11.454,1.406,15.983,12.944,14.163,27.773s-7.849,21.888-16.352,19.38-15.1-12.663-13.278-27.492S3477.6-995.114,3489.057-993.707Z" transform="translate(-3473.286 993.901)" fill="#f28ea8"/></g><g transform="translate(3336.298 -907.001)"><path d="M3294.616-994.052c3.166-1.979,7.122-2.481,11.756-1.491a42.335,42.335,0,0,1,14.422,6.672c10.165,6.87,20.412,17.876,28.111,30.194a65.308,65.308,0,0,1,7.664,15.973,22.437,22.437,0,0,1,.71,11.4,17.9,17.9,0,0,1-4.643,8.33A42.542,42.542,0,0,1,3344-916.24a16.52,16.52,0,0,1-9.853,2.8,19.553,19.553,0,0,1-9.974-3.752,52.428,52.428,0,0,1-10.511-10.032,146.4,146.4,0,0,1-11.253-15.931,168.157,168.157,0,0,1-9.677-17.372,61.6,61.6,0,0,1-5.041-14.452,21.788,21.788,0,0,1,.387-11.209,14.124,14.124,0,0,1,2.44-4.341A16.848,16.848,0,0,1,3294.616-994.052Z" transform="translate(-3286.621 996.563)" fill="#f28ea8"/><path d="M3294.926-993.574a14.394,14.394,0,0,0-6.321,7.593,21.261,21.261,0,0,0-.366,10.936,61.085,61.085,0,0,0,5,14.325,167.487,167.487,0,0,0,9.647,17.317,145.8,145.8,0,0,0,11.212,15.872,51.952,51.952,0,0,0,10.4,9.934,19.054,19.054,0,0,0,9.7,3.66,16.009,16.009,0,0,0,9.544-2.723,42.054,42.054,0,0,0,8.531-6.645,17.383,17.383,0,0,0,4.512-8.087,21.92,21.92,0,0,0-.7-11.136,64.836,64.836,0,0,0-7.6-15.841c-7.661-12.258-17.851-23.2-27.958-30.035A41.778,41.778,0,0,0,3306.29-995c-4.494-.96-8.317-.482-11.364,1.422m-.561-.9c13.629-8.518,39.375,10.515,55.017,35.543s8.556,34.649-5.074,43.166-26.678-2.052-42.321-27.08S3280.735-985.953,3294.365-994.471Z" transform="translate(-3286.651 996.534)" fill="#f28ea8"/></g><g transform="translate(3486.063 -964.499)"><path d="M3432.557-1045.7a13.63,13.63,0,0,1,7.32-4.3,19.693,19.693,0,0,1,9.281.453c6.663,1.77,14.248,6.365,21.935,13.286a80.193,80.193,0,0,1,8.684,8.995,36.384,36.384,0,0,1,5.063,7.949,14.313,14.313,0,0,1,1.419,6.611,8.238,8.238,0,0,1-2.143,5.1,10.457,10.457,0,0,1-1.593,1.431c-3.944,2.9-9.645,3.706-16.052,2.26-7.109-1.6-14.616-5.829-21.71-12.215-7.6-6.839-12.74-12-14.918-16.58a10.034,10.034,0,0,1-1-6.428A14.237,14.237,0,0,1,3432.557-1045.7Z" transform="translate(-3428.144 1050.898)" fill="#f28ea8"/><path d="M3432.98-1045.317a13.728,13.728,0,0,0-3.585,6.31,9.527,9.527,0,0,0,.954,6.1c2.141,4.5,7.248,9.619,14.795,16.414,7.027,6.326,14.451,10.508,21.473,12.092,6.255,1.412,11.8.641,15.623-2.169a10.039,10.039,0,0,0,1.515-1.36c2.472-2.745,2.686-6.5.633-11.145a35.891,35.891,0,0,0-4.991-7.831,79.874,79.874,0,0,0-8.627-8.935c-7.625-6.865-15.134-11.418-21.717-13.168a19.17,19.17,0,0,0-9.03-.447,13.1,13.1,0,0,0-7.041,4.141m-.786-.709c8.546-9.491,24.038-4.33,39.282,9.4s19.349,25.051,11.391,30.909-23.187,3.738-38.431-9.989S3423.647-1036.535,3432.193-1046.026Z" transform="translate(-3428.173 1050.868)" fill="#f28ea8"/></g></g></g></svg>