<svg xmlns="http://www.w3.org/2000/svg" xmlns:xlink="http://www.w3.org/1999/xlink" width="1024" height="1024" viewBox="0 0 1024 1024">
  <defs>
    <clipPath id="clip-shrymp-1_1">
      <rect width="1024" height="1024"/>
    </clipPath>
  </defs>
  <g id="shrymp-1_1" data-name="shrymp-1 – 1" clip-path="url(#clip-shrymp-1_1)">
    <path id="Intersection_1" data-name="Intersection 1" d="M-743.638,977.113s-140.153,5.636-203.062-61.06-112.181-135.8-112.181-226.492c0-132.59,71.178-219.569,233.592-290.392a467,467,0,0,1,131.881-35.493A81.087,81.087,0,0,1-622.831,322.8a81.078,81.078,0,0,1,72.018,43.519c56.676,8.46,105.769,24.367,141.588,39.947,16.2,7.049,23.047,18.388,23.044,32.3,0,21.324-16.083,48.691-39.2,75.932,50.509,13.759,113.629,21.634,161.53-3.2,112.716-58.439,158.24-131.935,152.218-245.753-6.516-123.195-49.5-184.816-158.6-227.363-98.222-38.3-196.367,9.723-238.844,74.357-19.351,29.444-22.613,75.168-8.512,119.327,11.936,37.384,33.7,65.4,58.206,74.941,55,21.414,137.521.161,176.586-45.481,20.654-24.132,23.309-50.53,21.9-68.427-2.106-26.747-14.853-52.506-34.1-68.9-17.45-14.868-45.893-21.28-74.228-16.732-22.237,3.569-40.012,13.09-47.547,25.47-16.575,27.23-10.118,65.242,15.023,88.418,18.76,17.294,60.143,5.069,74.5-1.1a6,6,0,0,1,7.881,3.145,6,6,0,0,1-3.145,7.881c-1.561.67-26.071,11.013-50.8,11.014-13.313,0-26.685-3-36.577-12.116-29.74-27.417-36.949-70.937-17.139-103.48,9.338-15.341,30.234-26.96,55.9-31.078,32.189-5.167,63.559,2.1,83.912,19.446,21.618,18.42,35.928,47.241,38.279,77.1a105.055,105.055,0,0,1-24.747,77.172c-31.183,36.434-85.94,58.2-136.675,58.2-18.817,0-37.075-2.992-53.382-9.34C-491.591,307.15-516,276.319-529.023,235.52-544.2,188-540.4,138.348-519.107,105.952c45.065-68.572,149.131-119.544,253.231-78.947,112.894,44.026,159.5,110.73,166.228,237.91,6.307,119.234-41.148,196.105-158.678,257.04-24.726,12.82-52.765,17.668-81.031,17.668-33.012,0-66.331-6.611-95.06-14.86C-477.434,571.9-538.272,616.3-569.4,625.489-632.35,644.084-787.3,618.518-847.3,664c-12.534,9.5-19.884,20.018-23.312,30.97l.592.273s-.242.044-.712.117a52.627,52.627,0,0,0-2.243,15.363c-.008,37.253,36.513,76.389,63.6,96.7,19.1,14.323,77.262,9.324,110.426,20.293,7.5-39.578,46.516-87.43,89.125-117.575,46.112-32.623,111.869-25.763,123.382,9.5,5.807,17.785-21.83,61.141-54.361,97.522a270.835,270.835,0,0,1,34.14-3.6c56.441-2.246,107.854,39.322,98.306,75.163-7.447,27.951-115.214,63.616-169.361,63.617-11.949,0-21.283-1.736-26.355-5.675-2.707-2.1-5.564-4.195-8.491-6.288a85.822,85.822,0,0,1-2.561,9.045c-8.286,24.62-64.185,28.6-99.478,28.6C-731.475,978.023-743.638,977.113-743.638,977.113Z" transform="translate(1094)" fill="#ffb19f"/>
    <ellipse id="scalera" cx="81.003" cy="80.323" rx="81.003" ry="80.323" transform="translate(390.165 322.803)" fill="#575757" stroke="#575757" stroke-linecap="round" stroke-width="12"/>
    <ellipse id="eye-light" cx="20.421" cy="20.421" rx="20.421" ry="20.421" transform="translate(463.681 362.283)" fill="#fff"/>
  </g>
</svg>
